<svg width="20" height="20" viewBox="0 0 20 20" fill="none" xmlns="http://www.w3.org/2000/svg">
<path d="M9.1665 1.66666H10.8332V3.33332H11.2498C11.5814 3.33332 11.8993 3.46502 12.1337 3.69944C12.3681 3.93386 12.4998 4.2518 12.4998 4.58332V7.49999L12.1332 7.86666L13.4998 10.2333C14.4248 9.32499 14.9998 8.06666 14.9998 6.66666H16.6665C16.6665 8.68332 15.7748 10.4917 14.3582 11.7167L16.9748 16.25L17.0832 18.1L15.5248 17.0833L12.9665 12.6417C12.0832 13.0833 11.0665 13.3333 9.99984 13.3333C8.93317 13.3333 7.9165 13.0833 7.03317 12.6417L4.47484 17.0833L2.9165 18.1L3.02484 16.25L7.8665 7.86666L7.49984 7.49999V4.58332C7.49984 4.2518 7.63153 3.93386 7.86595 3.69944C8.10037 3.46502 8.41832 3.33332 8.74984 3.33332H9.1665V1.66666ZM7.8665 11.1917C8.5165 11.5 9.2415 11.6667 9.99984 11.6667C10.7582 11.6667 11.4832 11.5 12.1332 11.1917L10.9165 9.08332H10.9082C10.3915 9.58332 9.60817 9.58332 9.0915 9.08332H9.08317L7.8665 11.1917ZM9.99984 4.99999C9.77882 4.99999 9.56686 5.08779 9.41058 5.24407C9.2543 5.40035 9.1665 5.61231 9.1665 5.83332C9.1665 6.05434 9.2543 6.2663 9.41058 6.42258C9.56686 6.57886 9.77882 6.66666 9.99984 6.66666C10.2209 6.66666 10.4328 6.57886 10.5891 6.42258C10.7454 6.2663 10.8332 6.05434 10.8332 5.83332C10.8332 5.61231 10.7454 5.40035 10.5891 5.24407C10.4328 5.08779 10.2209 4.99999 9.99984 4.99999Z" fill="white"/>
</svg>
