<svg width="20" height="20" viewBox="0 0 20 20" fill="none" xmlns="http://www.w3.org/2000/svg">
<g clip-path="url(#clip0_91_14)">
<path fill-rule="evenodd" clip-rule="evenodd" d="M4.15417 1.66666C3.0125 1.66666 2.16833 2.66582 2.20667 3.74832C2.2425 4.78999 2.19583 6.13749 1.85667 7.23666C1.515 8.33832 0.94 9.03666 0 9.12666V10.1392C0.94 10.2283 1.51583 10.9267 1.85583 12.0292C2.19583 13.1283 2.2425 14.4758 2.20583 15.5167C2.16833 16.6 3.0125 17.5992 4.15417 17.5992H15.8475C16.9892 17.5992 17.8333 16.6 17.795 15.5167C17.7592 14.4758 17.8058 13.1283 18.145 12.0292C18.4858 10.9267 19.06 10.2292 20 10.1392V9.12666C19.06 9.03666 18.4858 8.33832 18.145 7.23666C17.8058 6.13666 17.7592 4.78916 17.795 3.74832C17.8333 2.66499 16.9883 1.66666 15.8475 1.66666H4.15417ZM13.5583 11.4742C13.5583 12.9658 12.4458 13.87 10.6 13.87H7.4575C7.36755 13.87 7.28128 13.8343 7.21767 13.7706C7.15407 13.707 7.11833 13.6208 7.11833 13.5308V5.73416C7.11855 5.64435 7.15438 5.55829 7.21797 5.49487C7.28155 5.43144 7.36769 5.39582 7.4575 5.39582H10.5825C12.1217 5.39582 13.1325 6.22916 13.1325 7.50999C13.1325 8.40832 12.4525 9.21249 11.5867 9.35416V9.40082C12.7658 9.52999 13.5592 10.3467 13.5592 11.4742H13.5583ZM10.2583 6.46999H8.46667V9.00166H9.97583C11.1425 9.00166 11.7858 8.53166 11.7858 7.69166C11.7858 6.90499 11.2325 6.46999 10.2583 6.46999ZM8.46667 10.0058V12.795H10.325C11.5392 12.795 12.1833 12.3075 12.1833 11.3917C12.1833 10.475 11.5217 10.0058 10.2467 10.0058H8.46667Z" fill="white"/>
</g>
<defs>
<clipPath id="clip0_91_14">
<rect width="20" height="20" fill="white"/>
</clipPath>
</defs>
</svg>
