<svg width="20" height="20" viewBox="0 0 20 20" fill="none" xmlns="http://www.w3.org/2000/svg">
<path d="M6.32751 15H10.6713C12.9263 15 14.2813 13.865 14.2813 12.005C14.2813 10.6275 13.33 9.60999 11.9013 9.46249V9.33749C12.9413 9.16249 13.7538 8.17499 13.7538 7.06749C13.7538 5.44249 12.56 4.42999 10.5763 4.42999H6.32751V15ZM7.96876 8.90624V5.82249H10.1938C11.41 5.82249 12.1213 6.39374 12.1213 7.36874C12.1213 8.37124 11.3663 8.90624 9.91627 8.90624H7.96876ZM7.96876 13.6087V10.2025H10.2463C11.7913 10.2025 12.605 10.7812 12.605 11.8875C12.605 13.0075 11.8213 13.6087 10.3413 13.6087H7.96876Z" fill="white"/>
<path d="M0 5C0 3.67392 0.526784 2.40215 1.46447 1.46447C2.40215 0.526784 3.67392 0 5 0L15 0C16.3261 0 17.5979 0.526784 18.5355 1.46447C19.4732 2.40215 20 3.67392 20 5V15C20 16.3261 19.4732 17.5979 18.5355 18.5355C17.5979 19.4732 16.3261 20 15 20H5C3.67392 20 2.40215 19.4732 1.46447 18.5355C0.526784 17.5979 0 16.3261 0 15V5ZM5 1.25C4.00544 1.25 3.05161 1.64509 2.34835 2.34835C1.64509 3.05161 1.25 4.00544 1.25 5V15C1.25 15.9946 1.64509 16.9484 2.34835 17.6517C3.05161 18.3549 4.00544 18.75 5 18.75H15C15.9946 18.75 16.9484 18.3549 17.6517 17.6517C18.3549 16.9484 18.75 15.9946 18.75 15V5C18.75 4.00544 18.3549 3.05161 17.6517 2.34835C16.9484 1.64509 15.9946 1.25 15 1.25H5Z" fill="white"/>
</svg>
