<svg width="20" height="20" viewBox="0 0 20 20" fill="none" xmlns="http://www.w3.org/2000/svg">
<path d="M17.7778 3.33334H2.2222C1.92751 3.33334 1.64489 3.45041 1.43652 3.65878C1.22815 3.86715 1.11108 4.14977 1.11108 4.44445V15.5556C1.11108 15.8503 1.22815 16.1329 1.43652 16.3412C1.64489 16.5496 1.92751 16.6667 2.2222 16.6667H10.5555L10.8722 16.2778L11.3889 15.6445L11.3389 15.5556H2.2222V4.44445H17.7778V9.20001C18.1998 9.47323 18.575 9.81278 18.8889 10.2056V4.44445C18.8889 4.14977 18.7718 3.86715 18.5634 3.65878C18.3551 3.45041 18.0724 3.33334 17.7778 3.33334Z" fill="white"/>
<path d="M3.88892 6.66666H13.3334V7.55555H3.88892V6.66666Z" fill="white"/>
<path d="M3.88892 8.88889H10V9.77777H3.88892V8.88889Z" fill="white"/>
<path d="M3.88892 12.7778H9.44447V13.6667H3.88892V12.7778Z" fill="white"/>
<path d="M15.2555 9.57222C14.5446 9.56658 13.8485 9.77553 13.2582 10.1718C12.6679 10.568 12.2109 11.1331 11.9469 11.7932C11.6828 12.4533 11.6241 13.1777 11.7782 13.8717C11.9324 14.5658 12.2924 15.1971 12.8111 15.6833L11.7333 17L12.2333 19.0056L14.2667 16.5278C14.9103 16.7181 15.5952 16.7181 16.2389 16.5278L18.2722 19.0056L18.7722 17L17.6944 15.6833C18.2131 15.1971 18.5731 14.5658 18.7273 13.8717C18.8815 13.1777 18.8227 12.4533 18.5587 11.7932C18.2946 11.1331 17.8376 10.568 17.2473 10.1718C16.657 9.77553 15.9609 9.56658 15.25 9.57222H15.2555ZM15.2555 15.5056C14.7834 15.499 14.3238 15.353 13.9345 15.0859C13.5451 14.8188 13.2434 14.4426 13.0673 14.0046C12.8911 13.5665 12.8485 13.0861 12.9446 12.6239C13.0407 12.1616 13.2713 11.7381 13.6075 11.4066C13.9437 11.075 14.3703 10.8503 14.8339 10.7605C15.2974 10.6708 15.7771 10.7201 16.2127 10.9023C16.6483 11.0845 17.0203 11.3914 17.282 11.7844C17.5436 12.1774 17.6833 12.639 17.6833 13.1111C17.6775 13.7501 17.4187 14.3608 16.9637 14.8095C16.5088 15.2583 15.8946 15.5085 15.2555 15.5056Z" fill="white"/>
</svg>
