<svg width="20" height="20" viewBox="0 0 20 20" fill="none" xmlns="http://www.w3.org/2000/svg">
<g clip-path="url(#clip0_91_41)">
<path d="M7.07319 20C6.44316 19.7223 5.89984 19.2796 5.50061 18.7187C5.10138 18.1577 4.86107 17.4993 4.80506 16.8131C4.8422 16.1038 5.04682 15.4134 5.40216 14.7984C5.75751 14.1834 6.25347 13.6614 6.84944 13.275C6.75116 13.5128 6.71106 13.7707 6.73247 14.0271C6.75389 14.2835 6.8362 14.5311 6.97256 14.7494C7.12528 14.9637 7.33709 15.129 7.58214 15.225C7.82719 15.321 8.09489 15.3436 8.35256 15.29C8.59765 15.221 8.81958 15.0872 8.99496 14.9026C9.17034 14.718 9.29266 14.4895 9.34904 14.2412C9.40542 13.9929 9.39376 13.734 9.31529 13.4918C9.23682 13.2496 9.09445 13.0331 8.90319 12.865C8.48417 12.5252 8.16019 12.0828 7.96273 11.5808C7.76526 11.0788 7.70105 10.5342 7.77631 9.99999C7.92416 9.42316 8.24314 8.90459 8.69131 8.51249C8.35194 9.41437 9.30319 10.2994 9.94444 10.7394C11.0777 11.418 12.1688 12.1646 13.2119 12.975C13.7735 13.4176 14.2188 13.9904 14.5092 14.6438C14.7996 15.2972 14.9265 16.0115 14.8788 16.725C14.7546 17.4768 14.4259 18.18 13.9289 18.7576C13.4319 19.3352 12.7856 19.765 12.0607 20C15.0163 19.3425 18.0663 16.9925 18.1251 13.6594C18.096 12.3532 17.697 11.0821 16.9745 9.99366C16.252 8.90517 15.2355 8.04396 14.0432 7.50999H13.9357C13.9876 7.63999 14.0132 7.77999 14.0101 7.92312C14.0169 7.83095 14.0169 7.73841 14.0101 7.64624C14.0232 7.75687 14.0232 7.86437 14.0101 7.97124C13.9208 8.33617 13.6905 8.6508 13.3695 8.84612C13.0486 9.04143 12.6633 9.10149 12.2982 9.01312C11.9951 8.93855 11.7251 8.7661 11.5301 8.52249C10.5532 7.27249 11.5301 5.84999 11.6926 4.47249C11.7422 3.60922 11.5731 2.74738 11.2011 1.96679C10.8291 1.1862 10.2662 0.512086 9.56444 0.00686646C10.2769 1.19499 9.32631 2.75749 8.63631 3.64624C7.94631 4.53499 6.94694 5.19562 6.12944 5.97062C5.25086 6.79024 4.44609 7.68556 3.72444 8.64624C2.95321 9.58851 2.40311 10.6917 2.11463 11.8747C1.82616 13.0577 1.80666 14.2903 2.05756 15.4819C2.39902 16.6226 3.04695 17.6477 3.9308 18.4456C4.81464 19.2435 5.90049 19.7835 7.07006 20.0069H7.08319L7.07319 20Z" fill="white"/>
</g>
<defs>
<clipPath id="clip0_91_41">
<rect width="20" height="20" fill="white"/>
</clipPath>
</defs>
</svg>
