<svg width="20" height="20" viewBox="0 0 20 20" fill="none" xmlns="http://www.w3.org/2000/svg">
<path fill-rule="evenodd" clip-rule="evenodd" d="M6.22075 0.888328C7.19825 0.843328 7.50992 0.833328 9.99992 0.833328C12.4899 0.833328 12.8016 0.844162 13.7783 0.888328C14.7549 0.932495 15.4216 1.08833 16.0049 1.31416C16.6158 1.54499 17.1699 1.90583 17.6283 2.37249C18.0949 2.82999 18.4549 3.38333 18.6849 3.99499C18.9116 4.57833 19.0666 5.24499 19.1116 6.21999C19.1566 7.19916 19.1666 7.51083 19.1666 9.99999C19.1666 12.49 19.1558 12.8017 19.1116 13.7792C19.0674 14.7542 18.9116 15.4208 18.6849 16.0042C18.4549 16.6159 18.0943 17.1702 17.6283 17.6283C17.1699 18.095 16.6158 18.455 16.0049 18.685C15.4216 18.9117 14.7549 19.0667 13.7799 19.1117C12.8016 19.1567 12.4899 19.1667 9.99992 19.1667C7.50992 19.1667 7.19825 19.1558 6.22075 19.1117C5.24575 19.0675 4.57908 18.9117 3.99575 18.685C3.38402 18.455 2.82977 18.0944 2.37159 17.6283C1.90524 17.1706 1.54435 16.6166 1.31409 16.005C1.08825 15.4217 0.933252 14.755 0.888252 13.78C0.843252 12.8008 0.833252 12.4892 0.833252 9.99999C0.833252 7.50999 0.844085 7.19833 0.888252 6.22166C0.932419 5.24499 1.08825 4.57833 1.31409 3.99499C1.54469 3.3834 1.90585 2.82942 2.37242 2.37166C2.82995 1.90541 3.38365 1.54453 3.99492 1.31416C4.57825 1.08833 5.24492 0.933328 6.21992 0.888328H6.22075ZM13.7041 2.53833C12.7374 2.49416 12.4474 2.48499 9.99992 2.48499C7.55242 2.48499 7.26242 2.49416 6.29575 2.53833C5.40158 2.57916 4.91658 2.72833 4.59325 2.85416C4.16575 3.02083 3.85992 3.21833 3.53909 3.53916C3.23496 3.83504 3.0009 4.19523 2.85408 4.59333C2.72825 4.91666 2.57909 5.40166 2.53825 6.29583C2.49409 7.26249 2.48492 7.55249 2.48492 9.99999C2.48492 12.4475 2.49409 12.7375 2.53825 13.7042C2.57909 14.5983 2.72825 15.0833 2.85408 15.4067C3.00075 15.8042 3.23492 16.165 3.53909 16.4608C3.83492 16.765 4.19575 16.9992 4.59325 17.1458C4.91658 17.2717 5.40158 17.4208 6.29575 17.4617C7.26242 17.5058 7.55158 17.515 9.99992 17.515C12.4483 17.515 12.7374 17.5058 13.7041 17.4617C14.5983 17.4208 15.0833 17.2717 15.4066 17.1458C15.8341 16.9792 16.1399 16.7817 16.4608 16.4608C16.7649 16.165 16.9991 15.8042 17.1458 15.4067C17.2716 15.0833 17.4208 14.5983 17.4616 13.7042C17.5058 12.7375 17.5149 12.4475 17.5149 9.99999C17.5149 7.55249 17.5058 7.26249 17.4616 6.29583C17.4208 5.40166 17.2716 4.91666 17.1458 4.59333C16.9791 4.16583 16.7816 3.85999 16.4608 3.53916C16.1649 3.23505 15.8047 3.001 15.4066 2.85416C15.0833 2.72833 14.5983 2.57916 13.7041 2.53833ZM8.82908 12.8258C9.48297 13.098 10.2111 13.1348 10.889 12.9298C11.567 12.7248 12.1527 12.2908 12.5463 11.7019C12.9398 11.113 13.1166 10.4057 13.0466 9.70091C12.9766 8.99611 12.6641 8.33747 12.1624 7.83749C11.8426 7.51789 11.4559 7.27317 11.0302 7.12095C10.6045 6.96873 10.1503 6.91279 9.70033 6.95717C9.25039 7.00155 8.81588 7.14514 8.42809 7.3776C8.0403 7.61006 7.70887 7.92561 7.45767 8.30154C7.20647 8.67746 7.04174 9.1044 6.97535 9.55163C6.90895 9.99885 6.94254 10.4552 7.0737 10.8879C7.20486 11.3206 7.43032 11.7188 7.73385 12.0539C8.03738 12.389 8.41144 12.6526 8.82908 12.8258ZM6.66825 6.66833C7.10577 6.23081 7.62518 5.88375 8.19683 5.64696C8.76848 5.41018 9.38117 5.28831 9.99992 5.28831C10.6187 5.28831 11.2314 5.41018 11.803 5.64696C12.3747 5.88375 12.8941 6.23081 13.3316 6.66833C13.7691 7.10585 14.1162 7.62526 14.3529 8.19691C14.5897 8.76856 14.7116 9.38125 14.7116 9.99999C14.7116 10.6187 14.5897 11.2314 14.3529 11.8031C14.1162 12.3747 13.7691 12.8941 13.3316 13.3317C12.448 14.2153 11.2495 14.7117 9.99992 14.7117C8.7503 14.7117 7.55186 14.2153 6.66825 13.3317C5.78464 12.448 5.28823 11.2496 5.28823 9.99999C5.28823 8.75038 5.78464 7.55194 6.66825 6.66833ZM15.7566 5.98999C15.865 5.88772 15.9518 5.76473 16.0118 5.62831C16.0719 5.49188 16.1039 5.3448 16.1061 5.19577C16.1083 5.04674 16.0805 4.89878 16.0245 4.76067C15.9685 4.62256 15.8853 4.49709 15.7799 4.39169C15.6745 4.2863 15.549 4.20313 15.4109 4.14709C15.2728 4.09106 15.1248 4.06331 14.9758 4.06548C14.8268 4.06765 14.6797 4.09971 14.5433 4.15974C14.4068 4.21978 14.2839 4.30657 14.1816 4.41499C13.9827 4.62585 13.8738 4.90593 13.878 5.19577C13.8822 5.48561 13.9992 5.76239 14.2042 5.96736C14.4092 6.17233 14.686 6.28935 14.9758 6.29358C15.2656 6.2978 15.5457 6.1889 15.7566 5.98999Z" fill="white"/>
</svg>
