<svg width="20" height="20" viewBox="0 0 20 20" fill="none" xmlns="http://www.w3.org/2000/svg">
<path d="M19.7038 4.52501C19.7101 4.55126 19.7138 4.58064 19.7138 4.60626V8.90001C19.714 8.95481 19.6996 9.00867 19.6722 9.0561C19.6447 9.10353 19.6052 9.14283 19.5576 9.17001L15.9538 11.2469V15.3581C15.954 15.4129 15.9396 15.4668 15.9122 15.5142C15.8847 15.5617 15.8452 15.601 15.7976 15.6281L8.2751 19.9575C8.25754 19.9673 8.23886 19.9748 8.21947 19.98L8.2001 19.99C8.14778 20.0031 8.09304 20.0031 8.04072 19.99C8.03283 19.9877 8.02526 19.9843 8.01822 19.98C8.00016 19.9744 7.98277 19.9669 7.96635 19.9575L0.446973 15.6281C0.399062 15.6011 0.359115 15.5619 0.331141 15.5145C0.303168 15.4671 0.288151 15.4132 0.287598 15.3581V2.47751C0.287598 2.45126 0.293848 2.42189 0.300723 2.39626C0.303848 2.38626 0.306973 2.38001 0.310723 2.37001L0.330098 2.32126C0.333223 2.31126 0.343223 2.30501 0.349473 2.29501L0.378848 2.25564C0.389369 2.24914 0.39921 2.2416 0.408223 2.23314C0.421348 2.22314 0.430723 2.21376 0.443848 2.20689L4.20385 0.0418883C4.25139 0.0145825 4.30527 0.000213623 4.3601 0.000213623C4.41493 0.000213623 4.4688 0.0145825 4.51635 0.0418883L8.27947 2.20689C8.2926 2.21314 8.30197 2.22314 8.31197 2.23314L8.34447 2.25564C8.35408 2.26817 8.36285 2.28132 8.37072 2.29501C8.37697 2.30126 8.38697 2.31126 8.39322 2.32126L8.4126 2.37001C8.41572 2.38001 8.4226 2.38626 8.4226 2.39626C8.43206 2.42228 8.43651 2.44984 8.43572 2.47751V10.5213L11.567 8.71814V4.60689C11.5681 4.56995 11.576 4.53354 11.5901 4.49939L11.6095 4.45064C11.6157 4.43751 11.6257 4.43126 11.632 4.42126C11.642 4.40814 11.6482 4.39501 11.6582 4.38564C11.6682 4.37626 11.6807 4.36939 11.6907 4.36314C11.7001 4.35273 11.7111 4.34387 11.7232 4.33689L15.4863 2.17189C15.5334 2.14304 15.5874 2.12777 15.6426 2.12777C15.6978 2.12777 15.7518 2.14304 15.7988 2.17189L19.5588 4.33689C19.572 4.34314 19.5813 4.35314 19.5945 4.36314C19.6045 4.36939 19.6138 4.37626 19.6238 4.38564C19.6338 4.39501 19.6432 4.40814 19.6532 4.42126C19.6595 4.43126 19.6695 4.43751 19.6726 4.45064C19.6826 4.46689 19.6857 4.48314 19.692 4.49939C19.6982 4.50564 19.702 4.51564 19.7051 4.52564L19.7038 4.52501ZM19.0851 8.71751V5.15001L17.7701 5.90501L15.9538 6.95314V10.5206L19.0851 8.71751ZM15.3288 15.1756V11.6044L13.5382 12.6231L8.43385 15.54V19.1438L15.3288 15.1756ZM0.911348 3.02064V15.1756L7.80572 19.1438V15.54L4.20197 13.4988C4.18885 13.4925 4.17947 13.4825 4.16947 13.4725C4.15947 13.4663 4.14697 13.4594 4.1401 13.45H4.13697C4.12697 13.44 4.12072 13.4275 4.11072 13.4175C4.10447 13.4075 4.09447 13.3981 4.08822 13.385C4.08095 13.3727 4.07547 13.3595 4.07197 13.3456C4.06572 13.3325 4.05885 13.3231 4.05572 13.31C4.0526 13.2969 4.04947 13.2806 4.04947 13.2644C4.04635 13.2513 4.04322 13.2419 4.04322 13.2288V4.82376L2.22697 3.77564L0.911348 3.02064ZM4.35885 0.673763L1.2276 2.47689L4.35885 4.28001L7.4901 2.47689L4.35885 0.673763ZM5.98947 11.9306L7.80572 10.8825V3.02126L6.49072 3.77626L4.67135 4.82439V12.6856L5.98947 11.9306ZM15.6413 2.80251L12.5063 4.60564L15.6413 6.40876L18.7726 4.60564L15.6413 2.80251ZM15.3288 6.95314L12.1938 5.15001V8.71751L14.0101 9.76564L15.3282 10.5206L15.3288 6.95314ZM8.11885 14.9969L15.0101 11.0644L11.882 9.26126L4.99385 13.2263L8.11885 14.9969Z" fill="white"/>
</svg>
