<svg width="10" height="10" viewBox="0 0 10 10" fill="none" xmlns="http://www.w3.org/2000/svg">
<path d="M5.64346 4.35665C5.30216 4.0155 4.83935 3.82385 4.35679 3.82385C3.87423 3.82385 3.41142 4.0155 3.07012 4.35665L1.78304 5.64332C1.44174 5.98462 1.25 6.44752 1.25 6.93019C1.25 7.41286 1.44174 7.87577 1.78304 8.21707C2.12434 8.55837 2.58724 8.75011 3.06992 8.75011C3.55259 8.75011 4.01549 8.55837 4.35679 8.21707L5.00012 7.57373" stroke="#A6BCFF" stroke-width="1.66667" stroke-linecap="round" stroke-linejoin="round"/>
<path d="M4.35693 5.64334C4.69823 5.98449 5.16104 6.17613 5.6436 6.17613C6.12616 6.17613 6.58897 5.98449 6.93027 5.64334L8.21735 4.35667C8.55865 4.01537 8.75039 3.55247 8.75039 3.06979C8.75039 2.58712 8.55865 2.12422 8.21735 1.78292C7.87605 1.44162 7.41315 1.24988 6.93047 1.24988C6.4478 1.24988 5.9849 1.44162 5.6436 1.78292L5.00027 2.42625" stroke="#A6BCFF" stroke-width="1.66667" stroke-linecap="round" stroke-linejoin="round"/>
</svg>
