<svg width="20" height="20" viewBox="0 0 20 20" fill="none" xmlns="http://www.w3.org/2000/svg">
<g clip-path="url(#clip0_91_30)">
<path d="M20 9.74084C20 8.41584 18.3408 7.16001 15.7967 6.38168C16.3842 3.78918 16.1233 1.72584 14.9733 1.06501C14.6947 0.908944 14.3793 0.830387 14.06 0.83751V1.74584C14.2475 1.74584 14.3983 1.78334 14.525 1.85251C15.0792 2.17084 15.32 3.38084 15.1325 4.93834C15.0875 5.32168 15.0142 5.72501 14.9242 6.13668C14.0722 5.93137 13.2075 5.78299 12.3358 5.69251C11.8165 4.97608 11.25 4.29513 10.64 3.65418C11.9692 2.41918 13.2167 1.74251 14.065 1.74251V0.833344C12.9433 0.833344 11.4758 1.63251 9.99167 3.01834C8.50833 1.64168 7.04 0.85001 5.91917 0.85001V1.75834C6.76333 1.75834 8.015 2.43168 9.34417 3.65834C8.77333 4.25834 8.2025 4.93834 7.66 5.69251C6.78653 5.78199 5.92029 5.93179 5.0675 6.14084C4.97737 5.75067 4.90645 5.35631 4.855 4.95918C4.66333 3.40084 4.9 2.19084 5.45083 1.86918C5.5725 1.79584 5.73167 1.76251 5.91917 1.76251V0.854177C5.5775 0.854177 5.26667 0.92751 4.99833 1.08168C3.8525 1.74251 3.59583 3.80084 4.18667 6.38584C1.65083 7.16918 0 8.42001 0 9.74084C0 11.0658 1.65917 12.3217 4.20333 13.0992C3.61583 15.6925 3.87667 17.7558 5.02667 18.4158C5.29167 18.5708 5.60167 18.6442 5.94333 18.6442C7.065 18.6442 8.5325 17.845 10.0167 16.4592C11.5 17.8367 12.9675 18.6275 14.0892 18.6275C14.4109 18.6343 14.7287 18.5555 15.01 18.3992C16.1558 17.7392 16.4125 15.6808 15.8217 13.0958C18.3492 12.3175 20 11.0617 20 9.74084ZM14.6917 7.02168C14.5333 7.56656 14.3498 8.1038 14.1417 8.63168C13.801 7.96897 13.4269 7.32398 13.0208 6.69918C13.6 6.78501 14.1583 6.89084 14.6925 7.02168H14.6917ZM12.825 11.3633C12.5198 11.8962 12.192 12.4159 11.8425 12.9208C10.6194 13.0286 9.3892 13.03 8.16583 12.925C7.46412 11.9227 6.85045 10.8615 6.33167 9.75334C6.84965 8.6426 7.46072 7.57768 8.15833 6.57001C9.38116 6.46198 10.6111 6.46031 11.8342 6.56501C12.1725 7.05001 12.5033 7.56834 12.8208 8.11501C13.1308 8.64834 13.4125 9.19001 13.6692 9.73668C13.4097 10.29 13.128 10.8326 12.825 11.3633ZM14.1417 10.8333C14.3617 11.3792 14.55 11.9258 14.7042 12.4558C14.1708 12.5867 13.6075 12.6967 13.025 12.7817C13.4294 12.1512 13.8021 11.5009 14.1417 10.8333ZM10.0083 15.1833C9.62917 14.7917 9.25 14.3558 8.875 13.8783C9.24167 13.895 9.61667 13.9075 9.99583 13.9075C10.3792 13.9075 10.7583 13.8992 11.1292 13.8783C10.7625 14.3558 10.3833 14.7917 10.0083 15.1833ZM6.975 12.7817C6.41312 12.7003 5.8553 12.5929 5.30333 12.46C5.45417 11.9342 5.64167 11.3917 5.85333 10.85C6.02083 11.175 6.19667 11.5017 6.38833 11.8283C6.58 12.1542 6.775 12.4725 6.975 12.7817ZM9.9875 4.29834C10.3667 4.69001 10.7458 5.12584 11.1208 5.60334C10.7542 5.58668 10.3792 5.57418 10 5.57418C9.61667 5.57418 9.2375 5.58251 8.86667 5.60334C9.23333 5.12584 9.6125 4.69001 9.9875 4.29834ZM6.97083 6.70001C6.56656 7.32912 6.19387 7.97798 5.85417 8.64418C5.64018 8.11289 5.45245 7.57141 5.29167 7.02168C5.825 6.89501 6.38833 6.78501 6.97083 6.70001ZM3.28167 11.8033C1.83833 11.1883 0.905 10.3808 0.905 9.74084C0.905 9.10084 1.83833 8.28918 3.28167 7.67834C3.63167 7.52751 4.015 7.39251 4.41083 7.26668C4.64333 8.06501 4.94917 8.89668 5.3275 9.74918C4.9703 10.551 4.66821 11.3762 4.42333 12.2192C4.03621 12.0993 3.6552 11.9605 3.28167 11.8033ZM5.475 17.6283C4.92083 17.3117 4.68 16.1 4.8675 14.5433C4.9125 14.16 4.98583 13.7558 5.07583 13.3442C5.87417 13.54 6.74667 13.6908 7.66417 13.7892C8.18348 14.5056 8.75002 15.1865 9.36 15.8275C8.03083 17.0625 6.78333 17.7392 5.935 17.7392C5.77495 17.7409 5.61694 17.7031 5.475 17.6292V17.6283ZM15.145 14.5225C15.3367 16.08 15.1 17.2908 14.5492 17.6125C14.4275 17.6858 14.2683 17.7183 14.0808 17.7183C13.2367 17.7183 11.985 17.0458 10.6558 15.8183C11.2633 15.1801 11.826 14.5007 12.34 13.785C13.2135 13.6955 14.0797 13.5457 14.9325 13.3367C15.0267 13.7483 15.0992 14.1433 15.145 14.5225ZM16.7142 11.8033C16.3642 11.9542 15.9808 12.0892 15.585 12.215C15.3358 11.3678 15.0296 10.5384 14.6683 9.73251C15.0433 8.88501 15.3442 8.05751 15.5725 7.26251C15.9609 7.38277 16.3432 7.52154 16.7183 7.67834C18.1617 8.29334 19.095 9.10084 19.095 9.74084C19.0908 10.3808 18.1575 11.1925 16.7142 11.8033Z" fill="white"/>
<path d="M9.99566 11.6042C10.4898 11.6042 10.9638 11.4079 11.3132 11.0584C11.6627 10.709 11.859 10.235 11.859 9.74084C11.859 9.24665 11.6627 8.7727 11.3132 8.42326C10.9638 8.07382 10.4898 7.8775 9.99566 7.8775C9.50147 7.8775 9.02752 8.07382 8.67808 8.42326C8.32864 8.7727 8.13232 9.24665 8.13232 9.74084C8.13232 10.235 8.32864 10.709 8.67808 11.0584C9.02752 11.4079 9.50147 11.6042 9.99566 11.6042Z" fill="white"/>
</g>
<defs>
<clipPath id="clip0_91_30">
<rect width="20" height="20" fill="white"/>
</clipPath>
</defs>
</svg>
