<svg width="20" height="20" viewBox="0 0 20 20" fill="none" xmlns="http://www.w3.org/2000/svg">
<g clip-path="url(#clip0_91_26)">
<path d="M9.43271 13.8412C9.42334 13.86 9.41396 13.875 9.43271 13.8412V13.8412ZM17.2177 11.1225C16.589 11.1225 15.969 11.2662 15.4052 11.5444C15.2208 11.1725 15.0302 10.8475 14.999 10.6037C14.9615 10.3194 14.9208 10.1506 14.9646 9.81311C15.0083 9.47561 15.2052 8.99749 15.2021 8.96311C15.199 8.92874 15.1583 8.75686 14.7552 8.75374C14.3521 8.75061 14.0052 8.83186 13.9646 8.93811C13.8933 9.13224 13.8379 9.33186 13.799 9.53499C13.7271 9.90061 12.9933 11.2069 12.5777 11.8881C12.4402 11.6225 12.3246 11.3881 12.2996 11.2006C12.2621 10.9162 12.2215 10.7475 12.2652 10.41C12.309 10.0725 12.5058 9.59436 12.5027 9.55999C12.4996 9.52561 12.459 9.35374 12.0565 9.35061C11.654 9.34749 11.3065 9.42874 11.2658 9.53499C11.2252 9.64124 11.1815 9.89124 11.1002 10.1319C11.019 10.3725 10.0408 12.5475 9.78521 13.1131C9.65396 13.4006 9.54146 13.6319 9.46021 13.7881C9.44771 13.8131 9.43834 13.8287 9.43209 13.8412C9.44146 13.8256 9.44771 13.81 9.44771 13.8162C9.37896 13.9506 9.33834 14.0256 9.33834 14.0256V14.0287C9.28521 14.1287 9.22584 14.2194 9.19771 14.2194C9.17896 14.2194 9.13834 13.9569 9.20709 13.5975C9.35396 12.8412 9.70084 11.6662 9.69771 11.6256C9.69459 11.6037 9.76334 11.4006 9.46959 11.2912C9.18521 11.1881 9.08209 11.36 9.05709 11.36C9.03209 11.36 9.01334 11.4225 9.01334 11.4225C9.01334 11.4225 9.32896 10.0975 8.40709 10.0975C7.83209 10.0975 7.03209 10.7287 6.63896 11.3006C6.39209 11.435 5.85771 11.7256 5.29521 12.035L4.64834 12.3912C4.63271 12.3756 4.62021 12.36 4.60459 12.3444C3.48584 11.1506 1.42084 10.3069 1.50834 8.70374C1.53959 8.11936 1.74271 6.58499 5.47959 4.72249C8.54209 3.19749 10.9902 3.61624 11.4121 4.54749C12.0183 5.87561 10.1027 8.34749 6.92271 8.70374C5.71021 8.83811 5.07334 8.36936 4.91396 8.19436C4.74834 8.00999 4.72334 8.00061 4.66084 8.03499C4.55771 8.09124 4.62334 8.25374 4.66084 8.35061C4.75459 8.59749 5.14521 9.03499 5.81084 9.25374C6.39521 9.44436 7.81646 9.55061 9.53459 8.88499C11.4652 8.14124 12.9683 6.06936 12.5271 4.33499C12.0783 2.57249 9.15584 1.99436 6.39271 2.97561C4.74584 3.55999 2.96521 4.47874 1.68459 5.67561C0.162714 7.10061 -0.0804111 8.34124 0.0195889 8.85999C0.375839 10.7006 2.91271 11.9006 3.92771 12.7881L3.78709 12.8662C3.27771 13.1194 1.34396 14.1319 0.859589 15.2006C0.312714 16.4131 0.950214 17.2819 1.36834 17.4006C2.67459 17.7631 4.01146 17.11 4.73021 16.0381C5.44896 14.9662 5.36146 13.5662 5.03021 12.9287C5.02709 12.9194 5.02084 12.9131 5.01771 12.9037C5.3927 12.6816 5.77086 12.4649 6.15209 12.2537C6.02709 12.5912 5.93646 12.9975 5.88959 13.585C5.83334 14.2725 6.11771 15.1631 6.48646 15.5131C6.64896 15.6662 6.84521 15.6694 6.96771 15.6694C7.39896 15.6694 7.59271 15.3131 7.80834 14.8881C8.07396 14.3694 8.30834 13.7662 8.30834 13.7662C8.30834 13.7662 8.01459 15.3975 8.81771 15.3975C9.11146 15.3975 9.40521 15.0194 9.53646 14.8256V14.8287C9.53646 14.8287 9.54271 14.8162 9.55834 14.7912C9.58959 14.7444 9.60521 14.7162 9.60521 14.7162V14.7069C9.72396 14.5037 9.98334 14.0381 10.374 13.2694C10.8802 12.2756 11.364 11.035 11.364 11.035C11.4108 11.3075 11.4758 11.5769 11.5577 11.8412C11.6452 12.1381 11.8296 12.4631 11.9765 12.7787C11.8577 12.9412 11.7858 13.035 11.7858 13.035C11.7858 13.0375 11.7871 13.0394 11.789 13.0412C11.6952 13.1662 11.589 13.3006 11.4796 13.4319C11.0802 13.9069 10.6046 14.4506 10.5421 14.6069C10.4671 14.7912 10.4858 14.9287 10.6296 15.035C10.7358 15.1162 10.9233 15.1287 11.1202 15.1131C11.4796 15.0881 11.7327 15.0006 11.8546 14.9444C12.0794 14.8638 12.2918 14.7523 12.4858 14.6131C12.8765 14.3256 13.114 13.9131 13.0921 13.3694C13.0796 13.0694 12.9827 12.7694 12.864 12.4881C12.8983 12.4381 12.9358 12.385 12.9702 12.3319C13.3769 11.7251 13.7433 11.0923 14.0671 10.4375C14.114 10.71 14.1783 10.9794 14.2608 11.2437C14.3358 11.4969 14.4827 11.775 14.6171 12.0469C14.0358 12.5187 13.6765 13.0656 13.5521 13.425C13.3208 14.0906 13.5021 14.3906 13.8427 14.4594C13.9958 14.4906 14.2146 14.4187 14.3771 14.35C14.6183 14.2694 14.8458 14.1525 15.0515 14.0031C15.4421 13.7156 15.8202 13.3125 15.7946 12.7656C15.7852 12.5187 15.7165 12.2719 15.6258 12.0344C16.1165 11.8281 16.754 11.7156 17.5665 11.8094C19.3065 12.0125 19.6471 13.1 19.5815 13.5531C19.5158 14.0062 19.1502 14.2594 19.0283 14.3344C18.9065 14.4094 18.869 14.4375 18.8783 14.4937C18.894 14.575 18.9502 14.5719 19.0533 14.5531C19.1971 14.5281 19.9658 14.1844 20.0002 13.3437C20.0502 12.2812 19.0283 11.1125 17.219 11.1219L17.2177 11.1225ZM3.80584 15.6444C3.23084 16.2725 2.42521 16.51 2.07834 16.31C1.70646 16.0937 1.85334 15.1694 2.56209 14.5C2.99334 14.0937 3.54959 13.7187 3.91834 13.4875C4.00271 13.4375 4.12459 13.3625 4.27459 13.2719C4.28678 13.2641 4.29929 13.2568 4.31209 13.25C4.34021 13.2312 4.37146 13.2156 4.40271 13.1969C4.66146 14.1469 4.41209 14.9844 3.80584 15.6437V15.6444ZM8.00459 12.7881C7.80459 13.2787 7.38334 14.5287 7.12646 14.4631C6.90771 14.4069 6.77334 13.4537 7.08271 12.5162C7.23896 12.0444 7.57021 11.4819 7.76709 11.2631C8.08271 10.91 8.42959 10.7975 8.51084 10.9381C8.62021 11.1225 8.12959 12.4819 8.00459 12.7881ZM11.4733 14.4444C11.389 14.4881 11.3108 14.5162 11.2733 14.4944C11.2452 14.4787 11.3077 14.4194 11.3077 14.4194C11.3077 14.4194 11.7421 13.9537 11.914 13.7412C12.014 13.6162 12.1296 13.4694 12.2546 13.3069C12.2546 13.3225 12.2577 13.3381 12.2577 13.3569C12.254 13.9162 11.7165 14.2944 11.4727 14.4444H11.4733ZM14.1483 13.835C14.0858 13.7912 14.0952 13.6444 14.3046 13.1881C14.3858 13.01 14.5733 12.71 14.8983 12.4225C14.9352 12.5312 14.9552 12.645 14.9577 12.76C14.9546 13.4631 14.4515 13.7256 14.1483 13.835Z" fill="white"/>
</g>
<defs>
<clipPath id="clip0_91_26">
<rect width="20" height="20" fill="white"/>
</clipPath>
</defs>
</svg>
