<svg width="20" height="20" viewBox="0 0 20 20" fill="none" xmlns="http://www.w3.org/2000/svg">
<path d="M13.6334 11.6667C13.7 11.1167 13.75 10.5667 13.75 9.99999C13.75 9.43332 13.7 8.88332 13.6334 8.33332H16.45C16.5834 8.86666 16.6667 9.42499 16.6667 9.99999C16.6667 10.575 16.5834 11.1333 16.45 11.6667M12.1584 16.3C12.6584 15.375 13.0417 14.375 13.3084 13.3333H15.7667C14.9593 14.7236 13.6784 15.7767 12.1584 16.3ZM11.95 11.6667H8.05002C7.96669 11.1167 7.91669 10.5667 7.91669 9.99999C7.91669 9.43332 7.96669 8.87499 8.05002 8.33332H11.95C12.025 8.87499 12.0834 9.43332 12.0834 9.99999C12.0834 10.5667 12.025 11.1167 11.95 11.6667ZM10 16.6333C9.30835 15.6333 8.75002 14.525 8.40835 13.3333H11.5917C11.25 14.525 10.6917 15.6333 10 16.6333ZM6.66669 6.66666H4.23335C5.0324 5.27267 6.31235 4.2179 7.83335 3.69999C7.33335 4.62499 6.95835 5.62499 6.66669 6.66666ZM4.23335 13.3333H6.66669C6.95835 14.375 7.33335 15.375 7.83335 16.3C6.31554 15.7764 5.03739 14.7231 4.23335 13.3333ZM3.55002 11.6667C3.41669 11.1333 3.33335 10.575 3.33335 9.99999C3.33335 9.42499 3.41669 8.86666 3.55002 8.33332H6.36669C6.30002 8.88332 6.25002 9.43332 6.25002 9.99999C6.25002 10.5667 6.30002 11.1167 6.36669 11.6667M10 3.35832C10.6917 4.35832 11.25 5.47499 11.5917 6.66666H8.40835C8.75002 5.47499 9.30835 4.35832 10 3.35832ZM15.7667 6.66666H13.3084C13.0475 5.63454 12.6613 4.63824 12.1584 3.69999C13.6917 4.22499 14.9667 5.28332 15.7667 6.66666ZM10 1.66666C5.39169 1.66666 1.66669 5.41666 1.66669 9.99999C1.66669 12.2101 2.54466 14.3297 4.10746 15.8925C4.88129 16.6664 5.79994 17.2802 6.81099 17.699C7.82204 18.1178 8.90567 18.3333 10 18.3333C12.2102 18.3333 14.3298 17.4553 15.8926 15.8925C17.4554 14.3297 18.3334 12.2101 18.3334 9.99999C18.3334 8.90564 18.1178 7.82201 17.699 6.81096C17.2802 5.79991 16.6664 4.88125 15.8926 4.10743C15.1188 3.33361 14.2001 2.71978 13.189 2.30099C12.178 1.8822 11.0944 1.66666 10 1.66666Z" fill="white"/>
</svg>
